# Rhino

mtllib 200605_brick.mtl
usemtl diffuse_Black
v -1.5 0 1.5
v -1.5 3 1.5
v 1.5 0 1.5
v 1.5 3 1.5
v 0 0 1.5
v 1.5 1.5 1.5
v 0 3 1.5
v -1.5 1.5 1.5
v 1.5 0 1.5
v 1.5 3 1.5
v 1.5 0 -1.5
v 1.5 3 -1.5
v 1.5 1.5 1.5
v 1.5 0 3.2877025546440564E-09
v 1.5 1.5 -1.5
v 1.5 3 3.2877025546440564E-09
v 1.5 0 -1.5
v 1.5 3 -1.5
v -1.5 0 -1.5
v -1.5 3 -1.5
v 1.5 1.5 -1.5
v 0 0 -1.5
v -1.5 1.5 -1.5
v 0 3 -1.5
v -1.5 0 -1.5
v -1.5 3 -1.5
v -1.5 0 1.5
v -1.5 3 1.5
v -1.5 1.5 1.5
v -1.5 1.5 -1.5
v -1.5 0 3.2877025546440564E-09
v -1.5 3 3.2877025546440564E-09
v -1.5 0 1.5
v 1.5 0 1.5
v 0 0 1.5
v 0.75 1.0606601238250732 0.75
v 0 2.1213202476501465 3.287700778287217E-09
v -0.75 1.0606601238250732 0.75
v 1.5 0 1.5
v 1.5 0 -1.5
v 1.5 0 3.2877025546440564E-09
v 0 2.1213202476501465 3.287700778287217E-09
v 0.75 1.0606601238250732 0.75
v 0.75 1.0606601238250732 -0.75
v 1.5 0 -1.5
v -1.5 0 -1.5
v 0 0 -1.5
v 0 2.1213202476501465 3.287700778287217E-09
v 0.75 1.0606601238250732 -0.75
v -0.75 1.0606601238250732 -0.75
v -1.5 0 -1.5
v -1.5 0 1.5
v -1.5 0 3.2877025546440564E-09
v -0.75 1.0606601238250732 0.75
v 0 2.1213202476501465 3.287700778287217E-09
v -0.75 1.0606601238250732 -0.75
v -1.5 3 1.5
v 1.5 3 1.5
v 0 3 1.5
v 0.75 4.0606603622436523 0.75
v 0 5.1213202476501465 3.287700778287217E-09
v -0.75 4.0606603622436523 0.75
v 1.5 3 1.5
v 1.5 3 -1.5
v 1.5 3 3.2877025546440564E-09
v 0 5.1213202476501465 3.287700778287217E-09
v 0.75 4.0606603622436523 0.75
v 0.75 4.0606603622436523 -0.75
v 1.5 3 -1.5
v -1.5 3 -1.5
v 0 3 -1.5
v 0 5.1213202476501465 3.287700778287217E-09
v 0.75 4.0606603622436523 -0.75
v -0.75 4.0606603622436523 -0.75
v -1.5 3 -1.5
v -1.5 3 1.5
v -1.5 3 3.2877025546440564E-09
v -0.75 4.0606603622436523 0.75
v 0 5.1213202476501465 3.287700778287217E-09
v -0.75 4.0606603622436523 -0.75
vt 0.26794919371604919 0.46410161256790161
vt 0.26794919371604919 0.73058599233627319
vt 0.53443354368209839 0.46410161256790161
vt 0.53443354368209839 0.73058599233627319
vt 0.4011913537979126 0.46410161256790161
vt 0.53443354368209839 0.5973438024520874
vt 0.4011913537979126 0.73058599233627319
vt 0.26794919371604919 0.5973438024520874
vt 0 0.46410161256790161
vt 0 0.73058599233627319
vt 0.26648434996604919 0.46410161256790161
vt 0.26648434996604919 0.73058599233627319
vt 0 0.5973438024520874
vt 0.1332421749830246 0.46410161256790161
vt 0.26648434996604919 0.5973438024520874
vt 0.1332421749830246 0.73058599233627319
vt 0.26794919371604919 0.73205083608627319
vt 0.26794919371604919 0.99853515625
vt 0.53443354368209839 0.73205083608627319
vt 0.53443354368209839 0.99853515625
vt 0.26794919371604919 0.86529296636581421
vt 0.4011913537979126 0.73205083608627319
vt 0.53443354368209839 0.86529296636581421
vt 0.4011913537979126 0.99853515625
vt 0 0.73205083608627319
vt 0 0.99853515625
vt 0.26648434996604919 0.73205083608627319
vt 0.26648434996604919 0.99853515625
vt 0.26648434996604919 0.86529296636581421
vt 0 0.86529296636581421
vt 0.1332421749830246 0.73205083608627319
vt 0.1332421749830246 0.99853515625
vt 0.99853515625 0.5
vt 0.99853515625 0.76794916391372681
vt 0.99853515625 0.63397461175918579
vt 0.88324218988418579 0.7009618878364563
vt 0.76794916391372681 0.63397461175918579
vt 0.88324218988418579 0.56698727607727051
vt 0.26794919371604919 0.23205080628395081
vt 0.53443354368209839 0.23205080628395081
vt 0.4011913537979126 0.23205080628395081
vt 0.4011913537979126 0.46263676881790161
vt 0.33457028865814209 0.3473438024520874
vt 0.46781244874000549 0.3473438024520874
vt 0.99853515625 0
vt 0.99853515625 0.26794919371604919
vt 0.99853515625 0.1339745968580246
vt 0.76794916391372681 0.1339745968580246
vt 0.88324218988418579 0.066987298429012299
vt 0.88324218988418579 0.2009618878364563
vt 0 0.23205080628395081
vt 0.26648434996604919 0.23205080628395081
vt 0.1332421749830246 0.23205080628395081
vt 0.1998632550239563 0.3473438024520874
vt 0.1332421749830246 0.46263676881790161
vt 0.066621087491512299 0.3473438024520874
vt 0.76648432016372681 0.5
vt 0.76648432016372681 0.76794916391372681
vt 0.76648432016372681 0.63397461175918579
vt 0.6511913537979126 0.7009618878364563
vt 0.53589838743209839 0.63397461175918579
vt 0.6511913537979126 0.56698727607727051
vt 0.26794919371604919 0
vt 0.53443354368209839 0
vt 0.4011913537979126 0
vt 0.4011913537979126 0.23058596253395081
vt 0.33457028865814209 0.1152929812669754
vt 0.46781244874000549 0.1152929812669754
vt 0.76648432016372681 0
vt 0.76648432016372681 0.26794919371604919
vt 0.76648432016372681 0.1339745968580246
vt 0.53589838743209839 0.1339745968580246
vt 0.6511913537979126 0.066987298429012299
vt 0.6511913537979126 0.2009618878364563
vt 0 0
vt 0.26648434996604919 0
vt 0.1332421749830246 0
vt 0.1998632550239563 0.1152929812669754
vt 0.1332421749830246 0.23058596253395081
vt 0.066621087491512299 0.1152929812669754
vn 0 0 1
vn 0 0 1
vn 0 0 1
vn 0 0 1
vn 0 0 1
vn 0 0 1
vn 0 0 1
vn 0 0 1
vn 1 0 0
vn 1 0 0
vn 1 0 0
vn 1 0 0
vn 1 0 0
vn 1 0 0
vn 1 0 0
vn 1 0 0
vn 0 0 -1
vn 0 0 -1
vn 0 0 -1
vn 0 0 -1
vn 0 0 -1
vn 0 0 -1
vn 0 0 -1
vn 0 0 -1
vn -1 0 0
vn -1 0 0
vn -1 0 0
vn -1 0 0
vn -1 0 0
vn -1 0 0
vn -1 0 0
vn -1 0 0
vn 0 -0.57735025882720947 -0.81649661064147949
vn 0 -0.57735025882720947 -0.81649661064147949
vn 0 -0.57735025882720947 -0.81649661064147949
vn 0 -0.57735025882720947 -0.81649661064147949
vn 0 -0.57735025882720947 -0.81649661064147949
vn 0 -0.57735025882720947 -0.81649661064147949
vn -0.81649661064147949 -0.57735025882720947 0
vn -0.81649661064147949 -0.57735025882720947 0
vn -0.81649661064147949 -0.57735025882720947 0
vn -0.81649661064147949 -0.57735025882720947 0
vn -0.81649661064147949 -0.57735025882720947 0
vn -0.81649661064147949 -0.57735025882720947 0
vn 0 -0.57735025882720947 0.81649661064147949
vn 0 -0.57735025882720947 0.81649661064147949
vn 0 -0.57735025882720947 0.81649661064147949
vn 0 -0.57735025882720947 0.81649661064147949
vn 0 -0.57735025882720947 0.81649661064147949
vn 0 -0.57735025882720947 0.81649661064147949
vn 0.81649661064147949 -0.57735025882720947 0
vn 0.81649661064147949 -0.57735025882720947 0
vn 0.81649661064147949 -0.57735025882720947 0
vn 0.81649661064147949 -0.57735025882720947 0
vn 0.81649661064147949 -0.57735025882720947 0
vn 0.81649661064147949 -0.57735025882720947 0
vn 0 0.57735025882720947 0.81649661064147949
vn 0 0.57735025882720947 0.81649661064147949
vn 0 0.57735025882720947 0.81649661064147949
vn 0 0.57735025882720947 0.81649661064147949
vn 0 0.57735025882720947 0.81649661064147949
vn 0 0.57735025882720947 0.81649661064147949
vn 0.81649661064147949 0.57735025882720947 0
vn 0.81649661064147949 0.57735025882720947 0
vn 0.81649661064147949 0.57735025882720947 0
vn 0.81649661064147949 0.57735025882720947 0
vn 0.81649661064147949 0.57735025882720947 0
vn 0.81649661064147949 0.57735025882720947 0
vn 0 0.57735025882720947 -0.81649661064147949
vn 0 0.57735025882720947 -0.81649661064147949
vn 0 0.57735025882720947 -0.81649661064147949
vn 0 0.57735025882720947 -0.81649661064147949
vn 0 0.57735025882720947 -0.81649661064147949
vn 0 0.57735025882720947 -0.81649661064147949
vn -0.81649661064147949 0.57735025882720947 0
vn -0.81649661064147949 0.57735025882720947 0
vn -0.81649661064147949 0.57735025882720947 0
vn -0.81649661064147949 0.57735025882720947 0
vn -0.81649661064147949 0.57735025882720947 0
vn -0.81649661064147949 0.57735025882720947 0
f 8/8/8 1/1/1 5/5/5 3/3/3 6/6/6 4/4/4 7/7/7 2/2/2
f 13/13/13 9/9/9 14/14/14 11/11/11 15/15/15 12/12/12 16/16/16 10/10/10
f 21/21/21 17/17/17 22/22/22 19/19/19 23/23/23 20/20/20 24/24/24 18/18/18
f 30/30/30 25/25/25 31/31/31 27/27/27 29/29/29 28/28/28 32/32/32 26/26/26
f 37/37/37 36/36/36 34/34/34 35/35/35 33/33/33 38/38/38
f 41/41/41 39/39/39 43/43/43 42/42/42 44/44/44 40/40/40
f 47/47/47 45/45/45 49/49/49 48/48/48 50/50/50 46/46/46
f 55/55/55 54/54/54 52/52/52 53/53/53 51/51/51 56/56/56
f 61/61/61 62/62/62 57/57/57 59/59/59 58/58/58 60/60/60
f 67/67/67 63/63/63 65/65/65 64/64/64 68/68/68 66/66/66
f 73/73/73 69/69/69 71/71/71 70/70/70 74/74/74 72/72/72
f 80/80/80 75/75/75 77/77/77 76/76/76 78/78/78 79/79/79
