# Rhino

mtllib 200605_pyr_brick.mtl
usemtl diffuse_Black
v -1.5 0 1.5
v 1.5 0 1.5
v 0 2.1213202476501465 3.287700778287217E-09
v 1.5 0 1.5
v 1.5 0 -1.5
v 0 2.1213202476501465 3.287700778287217E-09
v 1.5 0 -1.5
v -1.5 0 -1.5
v 0 2.1213202476501465 3.287700778287217E-09
v -1.5 0 -1.5
v -1.5 0 1.5
v 0 2.1213202476501465 3.287700778287217E-09
v -1.5 0 1.5
v -1.5 0 -1.5
v 1.5 0 1.5
v 1.5 0 -1.5
vt 0.63250976800918579 0.3660254180431366
vt 0.63250976800918579 0.73058599233627319
vt 0.3169873058795929 0.5483056902885437
vt 0.63397461175918579 0.3660254180431366
vt 0.99853515625 0.3660254180431366
vt 0.81625485420227051 0.68301272392272949
vt 0.3155224621295929 0.3660254180431366
vt 0.3155224621295929 0.73058599233627319
vt 0 0.5483056902885437
vt 0.63397461175918579 0
vt 0.99853515625 0
vt 0.81625485420227051 0.3169873058795929
vt 0.3660254180431366 0
vt 0 0
vt 0.3660254180431366 0.3645605742931366
vt 0 0.3645605742931366
vn 0 0.57735025882720947 0.81649661064147949
vn 0 0.57735025882720947 0.81649661064147949
vn 0 0.57735025882720947 0.81649661064147949
vn 0.81649661064147949 0.57735025882720947 0
vn 0.81649661064147949 0.57735025882720947 0
vn 0.81649661064147949 0.57735025882720947 0
vn 0 0.57735025882720947 -0.81649661064147949
vn 0 0.57735025882720947 -0.81649661064147949
vn 0 0.57735025882720947 -0.81649661064147949
vn -0.81649661064147949 0.57735025882720947 0
vn -0.81649661064147949 0.57735025882720947 0
vn -0.81649661064147949 0.57735025882720947 0
vn 0 -1 0
vn 0 -1 0
vn 0 -1 0
vn 0 -1 0
f 3/3/3 1/1/1 2/2/2
f 6/6/6 4/4/4 5/5/5
f 9/9/9 7/7/7 8/8/8
f 12/12/12 10/10/10 11/11/11
f 14/14/14 16/16/16 15/15/15 13/13/13
